<svg width="356" height="326" viewBox="0 0 356 326" fill="none" xmlns="http://www.w3.org/2000/svg">
<path fill-rule="evenodd" clip-rule="evenodd" d="M18.1004 168.729C17.9115 134.276 -9.93011 97.9021 7.89024 68.4143C25.7427 38.8735 69.2676 42.7872 101.567 30.6158C129.81 19.9727 154.876 3.21562 185.018 1.66616C221.834 -0.226418 261.024 -0.331691 291.184 20.8683C324.264 44.1215 349.891 80.6544 354.532 120.823C359.125 160.58 337.412 197.768 315.488 231.25C295.299 262.082 268.067 286.666 235.121 303.183C201.919 319.829 165.735 326.404 128.623 324.935C86.4996 323.268 33.4777 328.652 9.12881 294.239C-15.7049 259.141 18.3363 211.724 18.1004 168.729Z" fill="#FFD101"/>
</svg>
