<svg width="361" height="349" viewBox="0 0 361 349" fill="none" xmlns="http://www.w3.org/2000/svg">
<path fill-rule="evenodd" clip-rule="evenodd" d="M194.234 0.0332412C229.092 1.1319 255.094 29.5955 282.819 50.7694C309.795 71.3717 339.923 89.8167 352.887 121.201C366.429 153.983 360.094 189.925 354.79 224.999C348.405 267.222 357.459 326.093 319.08 344.758C278.633 364.429 238.72 309.668 194.234 303.082C160.11 298.029 125.917 323.509 93.6219 311.378C56.6292 297.482 22.6499 270.095 8.31884 233.245C-6.33281 195.569 -0.577922 151.5 17.3584 115.275C33.9802 81.706 70.1275 65.4954 101.5 45.0546C131.015 25.8246 159.033 -1.07622 194.234 0.0332412Z" fill="#FFF2B7"/>
</svg>
